<mxfile host="app.diagrams.net" agent="Mozilla/5.0 (Windows NT 10.0; Win64; x64) AppleWebKit/537.36 (KHTML, like Gecko) Chrome/140.0.0.0 Safari/537.36" version="28.2.1">
  <diagram name="Page-1" id="5ZiOnMxFXzEPqADjw09J">
    <mxGraphModel dx="1580" dy="870" grid="1" gridSize="10" guides="1" tooltips="1" connect="1" arrows="1" fold="1" page="1" pageScale="1" pageWidth="1169" pageHeight="827" math="0" shadow="0">
      <root>
        <mxCell id="0" />
        <mxCell id="1" parent="0" />
        <mxCell id="waqpgnGIKYoHZYGL3liz-4" style="edgeStyle=orthogonalEdgeStyle;rounded=0;orthogonalLoop=1;jettySize=auto;html=1;exitX=1;exitY=0.5;exitDx=0;exitDy=0;strokeColor=default;fontSize=16;" parent="1" source="ITKVBOuoMlczPPvl_M08-1" target="ITKVBOuoMlczPPvl_M08-7" edge="1">
          <mxGeometry relative="1" as="geometry" />
        </mxCell>
        <mxCell id="waqpgnGIKYoHZYGL3liz-51" style="edgeStyle=orthogonalEdgeStyle;rounded=0;orthogonalLoop=1;jettySize=auto;html=1;exitX=1;exitY=0.75;exitDx=0;exitDy=0;entryX=0;entryY=0.5;entryDx=0;entryDy=0;curved=1;" parent="1" source="ITKVBOuoMlczPPvl_M08-1" target="waqpgnGIKYoHZYGL3liz-43" edge="1">
          <mxGeometry relative="1" as="geometry">
            <Array as="points">
              <mxPoint x="260" y="305" />
              <mxPoint x="260" y="542" />
            </Array>
          </mxGeometry>
        </mxCell>
        <mxCell id="waqpgnGIKYoHZYGL3liz-55" style="edgeStyle=orthogonalEdgeStyle;rounded=0;orthogonalLoop=1;jettySize=auto;html=1;exitX=1;exitY=0.75;exitDx=0;exitDy=0;entryX=0;entryY=0.5;entryDx=0;entryDy=0;curved=1;" parent="1" source="ITKVBOuoMlczPPvl_M08-1" target="ITKVBOuoMlczPPvl_M08-10" edge="1">
          <mxGeometry relative="1" as="geometry">
            <Array as="points">
              <mxPoint x="360" y="305" />
              <mxPoint x="360" y="695" />
            </Array>
          </mxGeometry>
        </mxCell>
        <mxCell id="waqpgnGIKYoHZYGL3liz-58" style="edgeStyle=orthogonalEdgeStyle;rounded=0;orthogonalLoop=1;jettySize=auto;html=1;exitX=1;exitY=0.25;exitDx=0;exitDy=0;entryX=0;entryY=0.5;entryDx=0;entryDy=0;curved=1;" parent="1" source="ITKVBOuoMlczPPvl_M08-1" target="ITKVBOuoMlczPPvl_M08-9" edge="1">
          <mxGeometry relative="1" as="geometry">
            <Array as="points">
              <mxPoint x="270" y="275" />
              <mxPoint x="270" y="617" />
            </Array>
          </mxGeometry>
        </mxCell>
        <mxCell id="ITKVBOuoMlczPPvl_M08-1" value="&lt;h2&gt;&lt;font style=&quot;font-size: 20px;&quot;&gt;PATIENT&lt;/font&gt;&lt;/h2&gt;" style="rounded=0;whiteSpace=wrap;html=1;fillColor=#008a00;fontColor=#ffffff;strokeColor=#005700;" parent="1" vertex="1">
          <mxGeometry x="80" y="260" width="120" height="60" as="geometry" />
        </mxCell>
        <mxCell id="waqpgnGIKYoHZYGL3liz-50" style="edgeStyle=orthogonalEdgeStyle;rounded=0;orthogonalLoop=1;jettySize=auto;html=1;exitX=1;exitY=0.5;exitDx=0;exitDy=0;entryX=0;entryY=0.5;entryDx=0;entryDy=0;curved=1;" parent="1" source="ITKVBOuoMlczPPvl_M08-2" target="ITKVBOuoMlczPPvl_M08-8" edge="1">
          <mxGeometry relative="1" as="geometry">
            <Array as="points">
              <mxPoint x="200" y="399" />
              <mxPoint x="330" y="399" />
            </Array>
          </mxGeometry>
        </mxCell>
        <mxCell id="waqpgnGIKYoHZYGL3liz-53" style="edgeStyle=orthogonalEdgeStyle;rounded=0;orthogonalLoop=1;jettySize=auto;html=1;exitX=0.5;exitY=1;exitDx=0;exitDy=0;entryX=0;entryY=0.5;entryDx=0;entryDy=0;curved=1;" parent="1" source="ITKVBOuoMlczPPvl_M08-2" target="waqpgnGIKYoHZYGL3liz-1" edge="1">
          <mxGeometry relative="1" as="geometry" />
        </mxCell>
        <mxCell id="waqpgnGIKYoHZYGL3liz-54" style="edgeStyle=orthogonalEdgeStyle;rounded=0;orthogonalLoop=1;jettySize=auto;html=1;exitX=0.75;exitY=1;exitDx=0;exitDy=0;entryX=0;entryY=1;entryDx=0;entryDy=0;curved=1;" parent="1" source="ITKVBOuoMlczPPvl_M08-2" target="waqpgnGIKYoHZYGL3liz-43" edge="1">
          <mxGeometry relative="1" as="geometry">
            <Array as="points">
              <mxPoint x="170" y="567" />
            </Array>
          </mxGeometry>
        </mxCell>
        <mxCell id="waqpgnGIKYoHZYGL3liz-57" style="edgeStyle=orthogonalEdgeStyle;rounded=0;orthogonalLoop=1;jettySize=auto;html=1;exitX=0.5;exitY=1;exitDx=0;exitDy=0;entryX=0;entryY=1;entryDx=0;entryDy=0;curved=1;" parent="1" source="ITKVBOuoMlczPPvl_M08-2" target="ITKVBOuoMlczPPvl_M08-10" edge="1">
          <mxGeometry relative="1" as="geometry">
            <Array as="points">
              <mxPoint x="140" y="720" />
            </Array>
          </mxGeometry>
        </mxCell>
        <mxCell id="waqpgnGIKYoHZYGL3liz-60" style="edgeStyle=orthogonalEdgeStyle;rounded=0;orthogonalLoop=1;jettySize=auto;html=1;exitX=0.25;exitY=1;exitDx=0;exitDy=0;entryX=0;entryY=1;entryDx=0;entryDy=0;curved=1;" parent="1" source="ITKVBOuoMlczPPvl_M08-2" target="ITKVBOuoMlczPPvl_M08-9" edge="1">
          <mxGeometry relative="1" as="geometry">
            <Array as="points">
              <mxPoint x="110" y="640" />
              <mxPoint x="390" y="640" />
              <mxPoint x="390" y="642" />
            </Array>
          </mxGeometry>
        </mxCell>
        <mxCell id="ITKVBOuoMlczPPvl_M08-2" value="&lt;font style=&quot;font-size: 20px;&quot;&gt;&lt;b&gt;DOCTOR&lt;/b&gt;&lt;/font&gt;" style="rounded=0;whiteSpace=wrap;html=1;fillColor=#0050ef;fontColor=#ffffff;strokeColor=#001DBC;" parent="1" vertex="1">
          <mxGeometry x="80" y="367" width="120" height="60" as="geometry" />
        </mxCell>
        <mxCell id="waqpgnGIKYoHZYGL3liz-32" style="edgeStyle=orthogonalEdgeStyle;rounded=0;orthogonalLoop=1;jettySize=auto;html=1;exitX=1;exitY=0.5;exitDx=0;exitDy=0;entryX=0.5;entryY=0;entryDx=0;entryDy=0;curved=1;" parent="1" source="ITKVBOuoMlczPPvl_M08-3" target="waqpgnGIKYoHZYGL3liz-31" edge="1">
          <mxGeometry relative="1" as="geometry" />
        </mxCell>
        <mxCell id="ITKVBOuoMlczPPvl_M08-3" value="&lt;font style=&quot;font-size: 15px;&quot;&gt;Register&lt;/font&gt;" style="ellipse;whiteSpace=wrap;html=1;" parent="1" vertex="1">
          <mxGeometry x="455" y="40" width="90" height="60" as="geometry" />
        </mxCell>
        <mxCell id="waqpgnGIKYoHZYGL3liz-35" style="edgeStyle=orthogonalEdgeStyle;rounded=0;orthogonalLoop=1;jettySize=auto;html=1;exitX=1;exitY=0.5;exitDx=0;exitDy=0;entryX=0.5;entryY=1;entryDx=0;entryDy=0;curved=1;" parent="1" source="ITKVBOuoMlczPPvl_M08-5" target="waqpgnGIKYoHZYGL3liz-31" edge="1">
          <mxGeometry relative="1" as="geometry" />
        </mxCell>
        <mxCell id="ITKVBOuoMlczPPvl_M08-5" value="&lt;font style=&quot;font-size: 15px;&quot;&gt;Login&lt;/font&gt;" style="ellipse;whiteSpace=wrap;html=1;" parent="1" vertex="1">
          <mxGeometry x="455" y="180" width="90" height="60" as="geometry" />
        </mxCell>
        <mxCell id="ITKVBOuoMlczPPvl_M08-6" value="&lt;font style=&quot;font-size: 15px;&quot;&gt;Search&lt;/font&gt;" style="ellipse;whiteSpace=wrap;html=1;" parent="1" vertex="1">
          <mxGeometry x="450" y="300" width="100" height="60" as="geometry" />
        </mxCell>
        <mxCell id="ITKVBOuoMlczPPvl_M08-7" value="&lt;font style=&quot;font-size: 15px;&quot;&gt;Book Appointment&lt;/font&gt;" style="ellipse;whiteSpace=wrap;html=1;" parent="1" vertex="1">
          <mxGeometry x="300" y="260" width="140" height="60" as="geometry" />
        </mxCell>
        <mxCell id="waqpgnGIKYoHZYGL3liz-44" style="edgeStyle=orthogonalEdgeStyle;rounded=0;orthogonalLoop=1;jettySize=auto;html=1;exitX=1;exitY=0.5;exitDx=0;exitDy=0;entryX=0.5;entryY=0;entryDx=0;entryDy=0;curved=1;" parent="1" source="ITKVBOuoMlczPPvl_M08-8" target="waqpgnGIKYoHZYGL3liz-29" edge="1">
          <mxGeometry relative="1" as="geometry" />
        </mxCell>
        <mxCell id="ITKVBOuoMlczPPvl_M08-8" value="&lt;span style=&quot;font-size: 15px;&quot;&gt;Cancel Appointment&lt;/span&gt;" style="ellipse;whiteSpace=wrap;html=1;" parent="1" vertex="1">
          <mxGeometry x="440" y="367" width="120" height="63" as="geometry" />
        </mxCell>
        <mxCell id="ITKVBOuoMlczPPvl_M08-9" value="&lt;span style=&quot;font-size: 15px;&quot;&gt;View Prescription&lt;/span&gt;" style="ellipse;whiteSpace=wrap;html=1;" parent="1" vertex="1">
          <mxGeometry x="445" y="582" width="110" height="70" as="geometry" />
        </mxCell>
        <mxCell id="ITKVBOuoMlczPPvl_M08-10" value="&lt;span style=&quot;font-size: 15px;&quot;&gt;Chat&lt;/span&gt;" style="ellipse;whiteSpace=wrap;html=1;" parent="1" vertex="1">
          <mxGeometry x="445" y="660" width="110" height="70" as="geometry" />
        </mxCell>
        <mxCell id="waqpgnGIKYoHZYGL3liz-39" style="edgeStyle=orthogonalEdgeStyle;rounded=0;orthogonalLoop=1;jettySize=auto;html=1;exitX=1;exitY=0;exitDx=0;exitDy=0;entryX=0;entryY=0.5;entryDx=0;entryDy=0;curved=1;" parent="1" source="ITKVBOuoMlczPPvl_M08-11" target="waqpgnGIKYoHZYGL3liz-26" edge="1">
          <mxGeometry relative="1" as="geometry">
            <Array as="points">
              <mxPoint x="639" y="240" />
            </Array>
          </mxGeometry>
        </mxCell>
        <mxCell id="waqpgnGIKYoHZYGL3liz-42" style="edgeStyle=orthogonalEdgeStyle;rounded=0;orthogonalLoop=1;jettySize=auto;html=1;exitX=1;exitY=1;exitDx=0;exitDy=0;curved=1;entryX=0;entryY=0.667;entryDx=0;entryDy=0;entryPerimeter=0;" parent="1" source="ITKVBOuoMlczPPvl_M08-11" target="waqpgnGIKYoHZYGL3liz-28" edge="1">
          <mxGeometry relative="1" as="geometry">
            <mxPoint x="760" y="390" as="targetPoint" />
            <Array as="points">
              <mxPoint x="639" y="370" />
            </Array>
          </mxGeometry>
        </mxCell>
        <mxCell id="ITKVBOuoMlczPPvl_M08-11" value="&lt;font style=&quot;font-size: 15px;&quot;&gt;View Information&lt;/font&gt;" style="ellipse;whiteSpace=wrap;html=1;" parent="1" vertex="1">
          <mxGeometry x="545" y="240" width="110" height="70" as="geometry" />
        </mxCell>
        <mxCell id="waqpgnGIKYoHZYGL3liz-1" value="&lt;span style=&quot;font-size: 15px;&quot;&gt;Delay Appointment&lt;/span&gt;" style="ellipse;whiteSpace=wrap;html=1;" parent="1" vertex="1">
          <mxGeometry x="440" y="438" width="120" height="63" as="geometry" />
        </mxCell>
        <mxCell id="waqpgnGIKYoHZYGL3liz-26" value="&lt;font style=&quot;font-size: 20px;&quot;&gt;Patients&lt;/font&gt;" style="shape=partialRectangle;whiteSpace=wrap;html=1;left=0;right=0;fillColor=#d5e8d4;strokeColor=#000000;fillStyle=auto;" parent="1" vertex="1">
          <mxGeometry x="800" y="210" width="120" height="60" as="geometry" />
        </mxCell>
        <mxCell id="waqpgnGIKYoHZYGL3liz-28" value="&lt;font style=&quot;font-size: 20px;&quot;&gt;Doctors&lt;/font&gt;" style="shape=partialRectangle;whiteSpace=wrap;html=1;left=0;right=0;fillColor=#dae8fc;strokeColor=#6c8ebf;fillStyle=auto;" parent="1" vertex="1">
          <mxGeometry x="800" y="330" width="120" height="60" as="geometry" />
        </mxCell>
        <mxCell id="waqpgnGIKYoHZYGL3liz-29" value="&lt;font style=&quot;font-size: 20px;&quot;&gt;Appointments&lt;/font&gt;" style="shape=partialRectangle;whiteSpace=wrap;html=1;left=0;right=0;fillColor=#ffe6cc;strokeColor=#d79b00;fillStyle=auto;" parent="1" vertex="1">
          <mxGeometry x="785" y="447" width="150" height="60" as="geometry" />
        </mxCell>
        <mxCell id="waqpgnGIKYoHZYGL3liz-34" style="edgeStyle=orthogonalEdgeStyle;rounded=0;orthogonalLoop=1;jettySize=auto;html=1;exitX=1;exitY=0.5;exitDx=0;exitDy=0;entryX=0;entryY=0.5;entryDx=0;entryDy=0;" parent="1" source="waqpgnGIKYoHZYGL3liz-30" target="waqpgnGIKYoHZYGL3liz-31" edge="1">
          <mxGeometry relative="1" as="geometry" />
        </mxCell>
        <mxCell id="waqpgnGIKYoHZYGL3liz-30" value="&lt;font style=&quot;font-size: 15px;&quot;&gt;Edit&lt;/font&gt;&lt;div&gt;&lt;font style=&quot;font-size: 15px;&quot;&gt;Profile&lt;/font&gt;&lt;/div&gt;" style="ellipse;whiteSpace=wrap;html=1;" parent="1" vertex="1">
          <mxGeometry x="455" y="110" width="90" height="60" as="geometry" />
        </mxCell>
        <mxCell id="waqpgnGIKYoHZYGL3liz-36" style="edgeStyle=orthogonalEdgeStyle;rounded=0;orthogonalLoop=1;jettySize=auto;html=1;exitX=1;exitY=0.5;exitDx=0;exitDy=0;entryX=0.5;entryY=0;entryDx=0;entryDy=0;curved=1;" parent="1" source="waqpgnGIKYoHZYGL3liz-31" target="waqpgnGIKYoHZYGL3liz-26" edge="1">
          <mxGeometry relative="1" as="geometry" />
        </mxCell>
        <mxCell id="waqpgnGIKYoHZYGL3liz-37" style="edgeStyle=orthogonalEdgeStyle;rounded=0;orthogonalLoop=1;jettySize=auto;html=1;exitX=1;exitY=1;exitDx=0;exitDy=0;entryX=0;entryY=0.5;entryDx=0;entryDy=0;curved=1;" parent="1" source="waqpgnGIKYoHZYGL3liz-31" target="waqpgnGIKYoHZYGL3liz-28" edge="1">
          <mxGeometry relative="1" as="geometry" />
        </mxCell>
        <mxCell id="waqpgnGIKYoHZYGL3liz-31" value="&lt;font style=&quot;font-size: 15px;&quot;&gt;Check Constraints&lt;/font&gt;" style="ellipse;whiteSpace=wrap;html=1;" parent="1" vertex="1">
          <mxGeometry x="630" y="110" width="110" height="60" as="geometry" />
        </mxCell>
        <mxCell id="0fWhVB3N7MsdPxiJQJHc-4" style="edgeStyle=orthogonalEdgeStyle;rounded=0;orthogonalLoop=1;jettySize=auto;html=1;exitX=1;exitY=0.5;exitDx=0;exitDy=0;entryX=0.5;entryY=1;entryDx=0;entryDy=0;curved=1;" edge="1" parent="1" source="waqpgnGIKYoHZYGL3liz-43" target="waqpgnGIKYoHZYGL3liz-29">
          <mxGeometry relative="1" as="geometry" />
        </mxCell>
        <mxCell id="waqpgnGIKYoHZYGL3liz-43" value="&lt;font style=&quot;font-size: 15px;&quot;&gt;View Appointment&lt;/font&gt;" style="ellipse;whiteSpace=wrap;html=1;" parent="1" vertex="1">
          <mxGeometry x="445" y="507" width="110" height="70" as="geometry" />
        </mxCell>
        <mxCell id="waqpgnGIKYoHZYGL3liz-48" style="edgeStyle=orthogonalEdgeStyle;rounded=0;orthogonalLoop=1;jettySize=auto;html=1;exitX=1;exitY=0.5;exitDx=0;exitDy=0;entryX=0.033;entryY=0.378;entryDx=0;entryDy=0;entryPerimeter=0;" parent="1" source="waqpgnGIKYoHZYGL3liz-1" target="waqpgnGIKYoHZYGL3liz-29" edge="1">
          <mxGeometry relative="1" as="geometry" />
        </mxCell>
        <mxCell id="0fWhVB3N7MsdPxiJQJHc-1" style="edgeStyle=orthogonalEdgeStyle;rounded=0;orthogonalLoop=1;jettySize=auto;html=1;exitX=0.5;exitY=1;exitDx=0;exitDy=0;entryX=0.014;entryY=0.661;entryDx=0;entryDy=0;entryPerimeter=0;curved=1;" edge="1" parent="1" source="ITKVBOuoMlczPPvl_M08-1" target="ITKVBOuoMlczPPvl_M08-6">
          <mxGeometry relative="1" as="geometry" />
        </mxCell>
        <mxCell id="0fWhVB3N7MsdPxiJQJHc-2" style="edgeStyle=orthogonalEdgeStyle;rounded=0;orthogonalLoop=1;jettySize=auto;html=1;exitX=0.75;exitY=1;exitDx=0;exitDy=0;curved=1;" edge="1" parent="1" source="ITKVBOuoMlczPPvl_M08-1" target="ITKVBOuoMlczPPvl_M08-8">
          <mxGeometry relative="1" as="geometry">
            <Array as="points">
              <mxPoint x="170" y="360" />
              <mxPoint x="380" y="360" />
              <mxPoint x="380" y="391" />
            </Array>
          </mxGeometry>
        </mxCell>
        <mxCell id="0fWhVB3N7MsdPxiJQJHc-3" style="edgeStyle=orthogonalEdgeStyle;rounded=0;orthogonalLoop=1;jettySize=auto;html=1;exitX=0.5;exitY=1;exitDx=0;exitDy=0;entryX=-0.004;entryY=0.358;entryDx=0;entryDy=0;entryPerimeter=0;curved=1;" edge="1" parent="1" source="ITKVBOuoMlczPPvl_M08-1" target="waqpgnGIKYoHZYGL3liz-1">
          <mxGeometry relative="1" as="geometry">
            <Array as="points">
              <mxPoint x="320" y="320" />
              <mxPoint x="320" y="461" />
            </Array>
          </mxGeometry>
        </mxCell>
        <mxCell id="0fWhVB3N7MsdPxiJQJHc-5" value="&lt;font style=&quot;font-size: 20px;&quot;&gt;Prescriptions&lt;/font&gt;" style="shape=partialRectangle;whiteSpace=wrap;html=1;left=0;right=0;fillStyle=auto;fillColor=#f8cecc;strokeColor=#b85450;" vertex="1" parent="1">
          <mxGeometry x="785" y="582" width="150" height="60" as="geometry" />
        </mxCell>
        <mxCell id="0fWhVB3N7MsdPxiJQJHc-6" style="edgeStyle=orthogonalEdgeStyle;rounded=0;orthogonalLoop=1;jettySize=auto;html=1;exitX=1;exitY=0.5;exitDx=0;exitDy=0;entryX=-0.006;entryY=0.612;entryDx=0;entryDy=0;entryPerimeter=0;startSize=5;" edge="1" parent="1" source="ITKVBOuoMlczPPvl_M08-9" target="0fWhVB3N7MsdPxiJQJHc-5">
          <mxGeometry relative="1" as="geometry">
            <Array as="points">
              <mxPoint x="555" y="619" />
            </Array>
          </mxGeometry>
        </mxCell>
      </root>
    </mxGraphModel>
  </diagram>
</mxfile>
